<?xml version="1.0" standalone="no"?>
<!DOCTYPE svg PUBLIC "-//W3C//DTD SVG 20010904//EN"
 "http://www.w3.org/TR/2001/REC-SVG-20010904/DTD/svg10.dtd">
<svg version="1.0" xmlns="http://www.w3.org/2000/svg"
 width="1680.000000pt" height="1680.000000pt" viewBox="0 0 1680.000000 1680.000000"
 preserveAspectRatio="xMidYMid meet">
<metadata>
Created by potrace 1.14, written by Peter Selinger 2001-2017
</metadata>
<g transform="translate(0.000000,1680.000000) scale(0.100000,-0.100000)"
fill="#000000" stroke="none">
<path d="M112 12748 c63 -73 347 -407 633 -743 285 -335 607 -713 715 -840
108 -126 403 -473 655 -770 1146 -1347 1075 -1265 1086 -1265 4 0 294 322 643
715 l636 715 -958 1157 -958 1158 -1283 3 -1282 2 113 -132z"/>
<path d="M7547 12738 c-29 -35 -292 -344 -582 -688 -486 -574 -1005 -1187
-1410 -1665 -89 -104 -397 -469 -686 -810 -578 -683 -3065 -3620 -3548 -4190
-1021 -1205 -1231 -1454 -1231 -1459 0 -3 574 -6 1275 -6 l1274 0 359 428
c197 235 844 1008 1438 1717 1858 2219 3183 3803 3577 4273 208 248 383 452
387 452 8 0 264 -292 1784 -2040 314 -360 813 -934 1110 -1275 297 -341 611
-702 699 -802 87 -101 162 -183 167 -183 8 0 204 223 1865 2130 l850 975 3
-2838 2 -2837 960 0 960 0 0 4440 0 4440 -962 -2 -962 -3 -1351 -1589 c-743
-874 -1356 -1591 -1362 -1593 -6 -2 -657 714 -1447 1591 l-1436 1596 -839 0
-839 0 -55 -62z"/>
<path d="M6321 7000 c-347 -368 -631 -675 -630 -682 0 -7 429 -530 953 -1163
l952 -1150 1277 -3 c702 -1 1277 1 1277 5 0 3 -26 36 -58 72 -56 63 -734 842
-1232 1416 -211 243 -936 1077 -1633 1878 -142 163 -262 297 -267 297 -5 0
-292 -301 -639 -670z"/>
</g>
</svg>
