<svg width="22" height="24" viewBox="0 0 22 24" fill="none" xmlns="http://www.w3.org/2000/svg">
<path d="M15.3563 8.7H6.64367M6.64367 5.49095V5.4C6.64367 2.96995 8.59406 1 11 1C13.4059 1 15.3563 2.96995 15.3563 5.4V5.49095M6.64367 5.49095C7.50046 5.4 8.59229 5.4 10.1156 5.4H11.8844C13.4077 5.4 14.4995 5.4 15.3563 5.49095M6.64367 5.49095C5.98798 5.56055 5.46994 5.68342 5.0015 5.90032C4.04933 6.34119 3.24325 7.05009 2.67991 7.94202C2.04062 8.95419 1.85566 10.2993 1.48574 12.9894C1.01071 16.4439 0.773193 18.1711 1.29544 19.5126C1.75392 20.6903 2.60045 21.6723 3.6923 22.293C4.936 23 6.66252 23 10.1156 23H11.8844C15.3375 23 17.064 23 18.3077 22.293C19.3995 21.6723 20.2461 20.6903 20.7046 19.5126C21.2268 18.1711 20.9893 16.4439 20.5143 12.9894C20.1443 10.2993 19.9594 8.95419 19.3201 7.94202C18.7568 7.05009 17.9507 6.34119 16.9985 5.90032C16.5301 5.68342 16.012 5.56055 15.3563 5.49095" stroke="#FFF" stroke-width="1.5" stroke-linecap="round"/>
</svg>
