<svg width="183" height="400" viewBox="0 0 183 400" fill="none" xmlns="http://www.w3.org/2000/svg">
<path opacity="0.2" d="M155 400C134.368 400 115.143 388.882 104.825 370.982L32.7061 250.609C11.3074 223.109 0 190.159 0 155.273C0 69.6545 69.5322 0 155 0C240.468 0 310 69.6545 310 155.273C310 190.159 298.693 223.109 277.294 250.609L205.076 371.145C194.857 388.882 175.632 400 155 400ZM155 22.7273C82.042 22.7273 22.6874 82.1864 22.6874 155.273C22.6874 185.255 32.4701 213.559 50.983 237.132C51.278 237.509 51.5502 237.9 51.7952 238.314L124.377 359.455C130.747 370.509 142.445 377.273 155 377.273C167.555 377.273 179.253 370.509 185.528 359.618L258.209 238.309C258.454 237.895 258.722 237.505 259.022 237.127C277.534 213.555 287.317 185.25 287.317 155.268C287.313 82.1864 227.958 22.7273 155 22.7273ZM155 221.086C118.773 221.086 89.302 191.564 89.302 155.273C89.302 118.982 118.773 89.4591 155 89.4591C191.227 89.4591 220.698 118.982 220.698 155.273C220.698 191.564 191.227 221.086 155 221.086ZM155 112.186C131.283 112.186 111.989 131.518 111.989 155.273C111.989 179.027 131.287 198.359 155 198.359C178.713 198.359 198.011 179.032 198.011 155.273C198.011 131.514 178.717 112.186 155 112.186Z" fill="white"/>
</svg>
