<svg width="26" height="21" viewBox="0 0 26 21" fill="none" xmlns="http://www.w3.org/2000/svg">
<path d="M16.6 16.6H11.8M8.2 16.6H5.8M1.01326 8.2C1 8.89243 1 9.68376 1 10.6C1 13.9603 1 15.6405 1.65396 16.9239C2.2292 18.0529 3.14708 18.9708 4.27606 19.546C5.55953 20.2 7.23969 20.2 10.6 20.2H15.4C18.7603 20.2 20.4405 20.2 21.7239 19.546C22.8529 18.9708 23.7708 18.0529 24.346 16.9239C25 15.6405 25 13.9603 25 10.6C25 9.68376 25 8.89243 24.9867 8.2M1.01326 8.2C1.04862 6.35294 1.17831 5.20957 1.65396 4.27606C2.2292 3.14708 3.14708 2.2292 4.27606 1.65396C5.55953 1 7.23969 1 10.6 1H15.4C18.7603 1 20.4405 1 21.7239 1.65396C22.8529 2.2292 23.7708 3.14708 24.346 4.27606C24.8217 5.20957 24.9514 6.35294 24.9867 8.2M1.01326 8.2H24.9867" stroke="#383838" stroke-width="1.5" stroke-linecap="round"/>
</svg>
