<svg width="22" height="19" viewBox="0 0 22 19" fill="none" xmlns="http://www.w3.org/2000/svg">
<path d="M20.0854 11.4918L20.7001 11.9215L20.0854 11.4918ZM20.0854 7.50824L19.4708 7.93801L20.0854 7.50824ZM1.91457 11.4918L2.52922 11.062L1.91457 11.4918ZM1.91457 7.50824L1.29993 7.07846L1.91457 7.50824ZM1 9.5H0.25H1ZM1.29993 11.9215C2.19704 13.2046 3.53181 14.8901 5.16389 16.2621C6.78647 17.6261 8.78648 18.75 11 18.75V17.25C9.29477 17.25 7.63039 16.3759 6.12911 15.1139C4.63733 13.8598 3.38876 12.2913 2.52922 11.062L1.29993 11.9215ZM11 18.75C13.2135 18.75 15.2135 17.6261 16.8361 16.2621C18.4682 14.8901 19.803 13.2046 20.7001 11.9215L19.4708 11.062C18.6112 12.2912 17.3627 13.8598 15.8709 15.1139C14.3696 16.3759 12.7052 17.25 11 17.25V18.75ZM20.7001 7.07846C19.803 5.79544 18.4682 4.10991 16.8361 2.73792C15.2135 1.37391 13.2135 0.25 11 0.25V1.75C12.7052 1.75 14.3696 2.62407 15.8709 3.88611C17.3627 5.14017 18.6112 6.70875 19.4708 7.93801L20.7001 7.07846ZM11 0.25C8.78648 0.25 6.78647 1.37391 5.16389 2.73792C3.53181 4.10991 2.19704 5.79545 1.29993 7.07846L2.52922 7.93801C3.38875 6.70875 4.63733 5.14017 6.12911 3.88611C7.63039 2.62407 9.29477 1.75 11 1.75V0.25ZM20.7001 11.9215C21.2775 11.0958 21.75 10.4622 21.75 9.5H20.25C20.25 9.90534 20.1128 10.1438 19.4708 11.062L20.7001 11.9215ZM19.4708 7.93801C20.1128 8.85621 20.25 9.09466 20.25 9.5H21.75C21.75 8.53777 21.2775 7.90423 20.7001 7.07846L19.4708 7.93801ZM2.52922 11.062C1.88719 10.1438 1.75 9.90534 1.75 9.5H0.25C0.25 10.4622 0.722523 11.0958 1.29993 11.9215L2.52922 11.062ZM1.29993 7.07846C0.722523 7.90423 0.25 8.53777 0.25 9.5H1.75C1.75 9.09466 1.88719 8.85621 2.52922 7.93801L1.29993 7.07846ZM7.1454 9.5C7.1454 11.6559 8.85266 13.4375 11 13.4375V11.9375C9.7181 11.9375 8.6454 10.8649 8.6454 9.5H7.1454ZM11 13.4375C13.1473 13.4375 14.8546 11.6559 14.8546 9.5H13.3546C13.3546 10.8649 12.2819 11.9375 11 11.9375V13.4375ZM14.8546 9.5C14.8546 7.34413 13.1473 5.5625 11 5.5625V7.0625C12.2819 7.0625 13.3546 8.13505 13.3546 9.5H14.8546ZM11 5.5625C8.85266 5.5625 7.1454 7.34413 7.1454 9.5H8.6454C8.6454 8.13505 9.7181 7.0625 11 7.0625V5.5625Z" fill="#383838"/>
</svg>
