<svg width="23" height="22" viewBox="0 0 23 22" fill="none" xmlns="http://www.w3.org/2000/svg">
<path d="M9.09892 12.0362C9.02827 12.0362 7.54619 12.0367 6.86264 12.036C6.51074 12.0358 6.38519 11.9132 6.38519 11.5698C6.38474 10.6876 6.38452 9.80553 6.38519 8.92342C6.38542 8.58437 6.51817 8.45499 6.86557 8.45477C7.54912 8.45433 9.02309 8.45455 9.09892 8.45455C9.09892 8.39412 9.09869 7.12059 9.09892 6.53411C9.09937 5.66706 9.25889 4.8371 9.71317 4.07717C10.1782 3.29935 10.855 2.76655 11.7224 2.45848C12.2779 2.26102 12.8546 2.18226 13.4441 2.18182C14.1817 2.18138 14.9192 2.18204 15.657 2.18335C15.974 2.18378 16.1146 2.31971 16.1153 2.62931C16.1167 3.45906 16.1167 4.2888 16.1153 5.11833C16.1149 5.4312 15.9801 5.55688 15.6559 5.56037C15.0513 5.5667 14.4463 5.56277 13.8424 5.58633C13.2324 5.58633 12.9115 5.8752 12.9115 6.48742C12.8969 7.13499 12.9055 7.78321 12.9055 8.45433C12.9626 8.45433 14.6985 8.45412 15.5098 8.45433C15.8784 8.45433 16.0044 8.57717 16.0044 8.93652C16.0044 9.81383 16.0042 10.6914 16.0035 11.5687C16.0033 11.9228 15.8849 12.0358 15.5141 12.036C14.7028 12.0364 12.9736 12.0362 12.898 12.0362V19.137C12.898 19.5155 12.7752 19.6362 12.39 19.6362C11.4508 19.6362 10.5115 19.6364 9.57232 19.6362C9.23189 19.6362 9.09914 19.5079 9.09914 19.1778C9.09892 16.8652 9.09892 12.1174 9.09892 12.0362Z" fill="#3D6AD6"/>
</svg>
