<svg width="26" height="25" viewBox="0 0 26 25" fill="none" xmlns="http://www.w3.org/2000/svg">
<path d="M5.9039 23.2789L5.60534 23.9669H5.60534L5.9039 23.2789ZM2.65672 19.8771L1.95926 20.1528L2.65672 19.8771ZM23.3433 19.8771L24.0407 20.1528L23.3433 19.8771ZM20.0961 23.2789L20.3947 23.9669L20.0961 23.2789ZM2.2 11.1574L2.94706 11.2238L2.98376 10.8106L2.65337 10.5599L2.2 11.1574ZM22 5.75735V5.00735V5.75735ZM13.9213 4.42426L14.4517 4.95459L13.9213 4.42426ZM16.4669 1.87868L16.9972 2.40901V2.40901L16.4669 1.87868ZM20.7095 1.87868L20.1792 2.40901V2.40901L20.7095 1.87868ZM21.0202 5.75734L21.0202 6.50734L21.403 6.50731L21.6276 6.19735L21.0202 5.75734ZM12.2669 4.42428L11.7366 4.95461L12.2669 4.42428ZM9.72134 1.8787L9.19101 2.40903L9.72134 1.8787ZM5.4787 1.8787L6.00903 2.40903L5.4787 1.8787ZM13 22.5574H13.75H13ZM2.16103 11.1278L1.70089 11.7201L2.16103 11.1278ZM23.7225 11.2139L23.2914 10.6002L23.7225 11.2139ZM11.2 23.0074C9.79143 23.0074 8.77434 23.0069 7.97054 22.9495C7.17419 22.8925 6.64383 22.7824 6.20246 22.5909L5.60534 23.9669C6.2666 24.2538 6.98647 24.3829 7.86359 24.4456C8.73327 24.5078 9.81292 24.5074 11.2 24.5074V23.0074ZM1.45004 14.3288C1.45004 15.7834 1.44966 16.9102 1.50869 17.8168C1.56813 18.7295 1.69007 19.472 1.95926 20.1528L3.35418 19.6013C3.16665 19.127 3.06025 18.5598 3.00552 17.7193C2.9504 16.8728 2.95004 15.803 2.95004 14.3288H1.45004ZM6.20246 22.5909C4.92133 22.0349 3.89279 20.9635 3.35418 19.6013L1.95926 20.1528C2.63858 21.871 3.94613 23.2469 5.60534 23.9669L6.20246 22.5909ZM23.05 14.3288C23.05 15.803 23.0496 16.8727 22.9945 17.7193C22.9398 18.5598 22.8333 19.127 22.6458 19.6013L24.0407 20.1528C24.3099 19.472 24.4319 18.7295 24.4913 17.8168C24.5504 16.9102 24.55 15.7834 24.55 14.3288H23.05ZM14.8 24.5074C16.1871 24.5074 17.2667 24.5078 18.1364 24.4456C19.0135 24.3829 19.7334 24.2538 20.3947 23.9669L19.7975 22.5909C19.3562 22.7824 18.8258 22.8925 18.0295 22.9495C17.2257 23.0069 16.2086 23.0074 14.8 23.0074V24.5074ZM22.6458 19.6013C22.1072 20.9635 21.0787 22.0349 19.7975 22.5909L20.3947 23.9669C22.0539 23.2469 23.3614 21.871 24.0407 20.1528L22.6458 19.6013ZM2.95004 14.3288C2.95004 12.5796 2.86802 12.1134 2.94706 11.2238L1.45294 11.091C1.36702 12.0581 1.45004 12.767 1.45004 14.3288H2.95004ZM22 6.50735C23.2426 6.50735 24.25 7.51471 24.25 8.75735H25.75C25.75 6.68629 24.0711 5.00735 22 5.00735V6.50735ZM4 5.00735C1.92893 5.00735 0.25 6.68629 0.25 8.75735H1.75C1.75 7.51471 2.75736 6.50735 4 6.50735V5.00735ZM14.4517 4.95459L16.9972 2.40901L15.9366 1.34835L13.391 3.89393L14.4517 4.95459ZM16.9972 2.40901C17.8759 1.53033 19.3005 1.53033 20.1792 2.40901L21.2399 1.34835C19.7754 -0.116117 17.401 -0.116117 15.9366 1.34835L16.9972 2.40901ZM13.391 3.89393C13.0135 4.27139 12.4667 4.85857 12.2762 5.56102L13.7238 5.95373C13.7982 5.67957 14.0623 5.34395 14.4517 4.95459L13.391 3.89393ZM20.1792 2.40901C20.9713 3.20109 21.0497 4.4382 20.4128 5.31732L21.6276 6.19735C22.69 4.73079 22.5614 2.66983 21.2399 1.34835L20.1792 2.40901ZM12.7973 3.89395L10.2517 1.34837L9.19101 2.40903L11.7366 4.95461L12.7973 3.89395ZM10.2517 1.34837C8.7872 -0.116101 6.41283 -0.116101 4.94837 1.34837L6.00903 2.40903C6.88771 1.53035 8.31233 1.53035 9.19101 2.40903L10.2517 1.34837ZM11.7366 4.95461C12.0016 5.21958 12.1669 5.55093 12.2762 5.95373L13.7238 5.56102C13.5682 4.98722 13.2991 4.39579 12.7973 3.89395L11.7366 4.95461ZM4.94837 1.34837C3.62689 2.66984 3.49822 4.73081 4.56069 6.19736L5.77542 5.31734C5.13852 4.43821 5.21695 3.2011 6.00903 2.40903L4.94837 1.34837ZM12.25 5.75737L12.25 22.5574H13.75L13.75 5.75737H12.25ZM5.16805 6.50735L13 6.50737L13 5.00737L5.16805 5.00735L5.16805 6.50735ZM4 11.0074C3.47948 11.0074 3.00213 10.8315 2.62117 10.5355L1.70089 11.7201C2.33573 12.2133 3.13458 12.5074 4 12.5074V11.0074ZM2.62117 10.5355C2.08971 10.1226 1.75 9.47985 1.75 8.75735H0.25C0.25 9.96261 0.819432 11.0352 1.70089 11.7201L2.62117 10.5355ZM2.65337 10.5599L2.6144 10.5303L1.70766 11.7253L1.74663 11.7548L2.65337 10.5599ZM14.8 23.0074H13V24.5074H14.8V23.0074ZM13 23.0074H11.2V24.5074H13V23.0074ZM12.25 22.5574L12.25 23.7574L13.75 23.7574L13.75 22.5574L12.25 22.5574ZM22 11.0074H13V12.5074H22V11.0074ZM13 11.0074H4V12.5074H13V11.0074ZM24.25 8.75735C24.25 9.51864 23.8726 10.1919 23.2914 10.6002L24.1536 11.8276C25.1175 11.1505 25.75 10.0278 25.75 8.75735H24.25ZM23.2914 10.6002C22.926 10.8568 22.4817 11.0074 22 11.0074V12.5074C22.8002 12.5074 23.544 12.2558 24.1536 11.8276L23.2914 10.6002ZM24.55 14.3288C24.55 12.7136 24.5505 12.0835 24.4697 11.1493L22.9753 11.2785C23.0495 12.1368 23.05 12.7007 23.05 14.3288H24.55ZM13 6.50737L20.7095 6.50736L20.7095 5.00736L13 5.00737L13 6.50737ZM20.7096 6.50736L21.0202 6.50734L21.0201 5.00734L20.7095 5.00736L20.7096 6.50736ZM20.7095 6.50736L22 6.50735L22 5.00735L20.7095 5.00736L20.7095 6.50736ZM5.16805 5.00735H4V6.50735H5.16805V5.00735ZM4 6.50735L8.5 6.50736L8.5 5.00736L4 5.00735L4 6.50735ZM8.5 6.50736L13 6.50737L13 5.00737L8.5 5.00736L8.5 6.50736ZM5.16805 6.50735L8.5 6.50736L8.5 5.00736L5.16806 5.00735L5.16805 6.50735ZM13 6.50737L21.0202 6.50734L21.0202 5.00734L13 5.00737L13 6.50737Z" fill="#383838"/>
</svg>
