<svg width="20" height="18" viewBox="0 0 20 18" fill="none" xmlns="http://www.w3.org/2000/svg">
<path d="M17.7398 3.73482C18.1223 4.59062 18.2843 5.75718 18.5628 7.76267C18.9904 10.8409 19.2041 12.3799 18.7341 13.5753C18.3215 14.6247 17.5596 15.4997 16.5769 16.0528C15.4576 16.6828 13.9037 16.6828 10.796 16.6828H9.20401C6.09627 16.6828 4.5424 16.6828 3.42307 16.0528C2.44041 15.4997 1.67853 14.6247 1.2659 13.5753C0.795874 12.3799 1.00964 10.8409 1.43716 7.76267C1.69797 5.88488 1.85662 4.74259 2.1897 3.90222M17.7398 3.73482C17.6652 3.56771 17.5821 3.41245 17.4881 3.26511C16.9811 2.47034 16.2556 1.83867 15.3986 1.44582C14.4262 1 13.2161 1 10.796 1H9.20401C6.7839 1 5.57385 1 4.60135 1.44582C3.7444 1.83867 3.01892 2.47034 2.51192 3.26511C2.38727 3.4605 2.28181 3.66982 2.1897 3.90222M17.7398 3.73482L17.6531 3.82161L16.8119 4.66271C13.5447 7.92996 11.9111 9.56359 9.88107 9.56359C7.85106 9.56359 6.21744 7.92996 2.95019 4.66271L2.1897 3.90222" stroke="#72BF44" stroke-width="1.5"/>
</svg>
