<svg width="170" height="139" viewBox="0 0 170 139" fill="none" xmlns="http://www.w3.org/2000/svg">
<g opacity="0.2">
<path d="M31.8188 54.4007C59.6702 40.3862 94.4878 45.0173 117.735 68.2939C140.407 90.9947 145.368 124.714 132.616 152.236C134.386 151.378 136.139 150.416 137.869 149.345C139.587 148.282 140.446 147.75 141.096 147.493C142.338 147.001 143.28 146.858 144.611 146.961C145.308 147.015 146.097 147.22 147.675 147.629C157.606 150.207 162.572 151.495 166.15 150.766C172.359 149.501 177.211 144.643 178.475 138.426C179.203 134.844 177.916 129.872 175.342 119.928C174.933 118.347 174.728 117.557 174.674 116.857C174.572 115.524 174.717 114.57 175.212 113.327C175.471 112.676 176.001 111.822 177.061 110.114C196.204 79.2706 181.389 41.8795 162.689 23.1555C131.854 -7.71851 81.8598 -7.71851 51.0246 23.1555C41.9551 32.2365 35.5532 42.9769 31.8188 54.4007Z" fill="white"/>
<path fill-rule="evenodd" clip-rule="evenodd" d="M39.6366 178.79C65.06 194.521 96.3845 181.734 111.156 166.944C136.55 141.519 136.55 100.295 111.156 74.8698C85.7621 49.4441 44.5908 49.4441 19.1971 74.8698C3.79671 90.2896 -8.40408 121.082 7.36099 146.482C8.23407 147.889 8.67061 148.592 8.88412 149.129C9.29111 150.152 9.41069 150.938 9.32654 152.036C9.28239 152.612 9.11392 153.263 8.77699 154.565C6.65714 162.754 5.59715 166.848 6.19673 169.798C7.23735 174.918 11.2336 178.919 16.3469 179.961C19.293 180.561 23.3824 179.5 31.5612 177.378C32.8608 177.04 33.5109 176.872 34.0845 176.827C35.1811 176.742 35.9568 176.86 36.9794 177.265C37.5143 177.477 38.2218 177.915 39.6366 178.79ZM83.7007 120.901C83.7007 126.037 87.8645 130.201 93.0008 130.201C98.1371 130.201 102.301 126.037 102.301 120.901C102.301 115.765 98.1371 111.601 93.0008 111.601C87.8645 111.601 83.7007 115.765 83.7007 120.901ZM55.8005 120.901C55.8005 126.037 59.9643 130.201 65.1006 130.201C70.2369 130.201 74.4006 126.037 74.4006 120.901C74.4006 115.765 70.2369 111.601 65.1006 111.601C59.9643 111.601 55.8005 115.765 55.8005 120.901ZM37.2003 130.201C32.064 130.201 27.9002 126.037 27.9002 120.901C27.9002 115.765 32.064 111.601 37.2003 111.601C42.3366 111.601 46.5004 115.765 46.5004 120.901C46.5004 126.037 42.3366 130.201 37.2003 130.201Z" fill="white"/>
</g>
</svg>
