<svg width="26" height="26" viewBox="0 0 26 26" fill="none" xmlns="http://www.w3.org/2000/svg">
<path d="M17.05 9.4C17.05 11.6368 15.2368 13.45 13 13.45V14.95C16.0652 14.95 18.55 12.4652 18.55 9.4H17.05ZM13 13.45C10.7632 13.45 8.95 11.6368 8.95 9.4H7.45C7.45 12.4652 9.93482 14.95 13 14.95V13.45ZM8.95 9.4C8.95 7.16325 10.7632 5.35 13 5.35V3.85C9.93482 3.85 7.45 6.33482 7.45 9.4H8.95ZM13 5.35C15.2368 5.35 17.05 7.16325 17.05 9.4H18.55C18.55 6.33482 16.0652 3.85 13 3.85V5.35ZM9.4 18.55H16.6V17.05H9.4V18.55ZM1.75 13C1.75 6.7868 6.7868 1.75 13 1.75V0.25C5.95837 0.25 0.25 5.95837 0.25 13H1.75ZM13 1.75C19.2132 1.75 24.25 6.7868 24.25 13H25.75C25.75 5.95837 20.0416 0.25 13 0.25V1.75ZM24.25 13C24.25 16.1905 22.9229 19.0697 20.7885 21.118L21.8271 22.2003C24.244 19.8808 25.75 16.6156 25.75 13H24.25ZM20.7885 21.118C18.7664 23.0585 16.0231 24.25 13 24.25V25.75C16.4256 25.75 19.537 24.3981 21.8271 22.2003L20.7885 21.118ZM16.6 18.55C18.5642 18.55 20.2033 19.949 20.5722 21.8053L22.0434 21.5129C21.5377 18.9683 19.2937 17.05 16.6 17.05V18.55ZM13 24.25C9.97685 24.25 7.23356 23.0585 5.21148 21.118L4.17287 22.2003C6.46304 24.3981 9.57443 25.75 13 25.75V24.25ZM5.21148 21.118C3.07713 19.0697 1.75 16.1905 1.75 13H0.25C0.25 16.6156 1.75598 19.8808 4.17287 22.2003L5.21148 21.118ZM9.4 17.05C6.70629 17.05 4.46228 18.9683 3.95656 21.5129L5.42779 21.8053C5.79671 19.949 7.4358 18.55 9.4 18.55V17.05Z" fill="#383838"/>
</svg>
