<svg width="21" height="25" viewBox="0 0 21 25" fill="none" xmlns="http://www.w3.org/2000/svg">
<path d="M5.94472 19.9119L6.41752 20.7225C8.54512 24.3698 12.8003 24.3698 14.9279 20.7225L15.4007 19.9119M1.43284 17.0156L1.555 17.2674C2.33957 18.8849 3.97927 19.9119 5.77697 19.9119H15.4939C17.0344 19.9119 18.4682 19.1249 19.2953 17.8253C20.4629 15.9908 20.1536 13.5841 18.5602 12.1043L18.5083 12.0561C17.4265 11.0514 16.8939 9.58772 17.077 8.12269L17.1534 7.51168C17.5856 4.05403 14.8895 1 11.405 1H9.39212C5.91181 1 3.21905 4.05031 3.65073 7.50374L3.74453 8.25413C3.91726 9.63603 3.41248 11.0164 2.38901 11.9608C0.991041 13.2508 0.602645 15.3041 1.43284 17.0156Z" stroke="#383838" stroke-width="1.5" stroke-linecap="round"/>
</svg>
