<svg width="139" height="110" viewBox="0 0 139 110" fill="none" xmlns="http://www.w3.org/2000/svg">
<path fill-rule="evenodd" clip-rule="evenodd" d="M132.775 60.6099C147.531 32.3476 133.484 -1.17733 117.337 -17.3239C88.436 -46.2254 41.5775 -46.2254 12.6761 -17.3239C-16.2254 11.5775 -16.2254 58.436 12.6761 87.3375C29.5096 104.171 62.4606 117.646 90.6201 102.792C93.5139 101.266 94.9618 100.502 95.6695 100.218C98.6574 99.0161 100.229 98.8331 103.413 99.3164C104.167 99.4308 105.154 99.6865 107.127 100.198C113.045 101.732 116.005 102.499 118.162 102.421C125.919 102.142 132.142 95.9187 132.421 88.1624C132.499 86.0053 131.732 83.0461 130.198 77.1276C129.687 75.155 129.431 74.1682 129.317 73.4184C128.832 70.2346 129.006 68.7082 130.197 65.7159C130.477 65.0111 131.243 63.5441 132.775 60.6099ZM41.7532 33.9552C41.7532 38.0425 38.4398 41.3559 34.3525 41.3559C30.2652 41.3559 26.9518 38.0425 26.9518 33.9552C26.9518 29.868 30.2652 26.5546 34.3525 26.5546C38.4398 26.5546 41.7532 29.868 41.7532 33.9552ZM71.3559 33.9552C71.3559 38.0425 68.0425 41.3559 63.9552 41.3559C59.868 41.3559 56.5546 38.0425 56.5546 33.9552C56.5546 29.868 59.868 26.5546 63.9552 26.5546C68.0425 26.5546 71.3559 29.868 71.3559 33.9552ZM93.5579 41.3559C97.6452 41.3559 100.959 38.0425 100.959 33.9552C100.959 29.868 97.6452 26.5546 93.5579 26.5546C89.4707 26.5546 86.1573 29.868 86.1573 33.9552C86.1573 38.0425 89.4707 41.3559 93.5579 41.3559Z" fill="white"/>
</svg>
